<svg width="23" height="22" viewBox="0 0 23 22" fill="none" xmlns="http://www.w3.org/2000/svg">
<path d="M16.7607 7.51643H21.9998V2.27734" stroke="black" stroke-width="1.74636" stroke-linecap="round" stroke-linejoin="round"/>
<path d="M4.71106 3.81499C5.60213 2.92261 6.6604 2.21467 7.82531 1.73165C8.99023 1.24862 10.239 1 11.5 1C12.7611 1 14.0098 1.24862 15.1748 1.73165C16.3397 2.21467 17.3979 2.92261 18.289 3.81499L22 7.51509" stroke="black" stroke-width="1.74636" stroke-linecap="round" stroke-linejoin="round"/>
<path d="M6.23909 13.6914H1V18.9305" stroke="black" stroke-width="1.74636" stroke-linecap="round" stroke-linejoin="round"/>
<path d="M18.289 17.3915C17.3979 18.2839 16.3396 18.9918 15.1747 19.4749C14.0098 19.9579 12.7611 20.2065 11.5 20.2065C10.2389 20.2065 8.99019 19.9579 7.82527 19.4749C6.66036 18.9918 5.60209 18.2839 4.71102 17.3915L1 13.6914" stroke="black" stroke-width="1.74636" stroke-linecap="round" stroke-linejoin="round"/>
</svg>
