<svg width="20" height="25" viewBox="0 0 20 25" fill="none" xmlns="http://www.w3.org/2000/svg">
<path d="M6.40002 15.3984H13.6" stroke="black" stroke-width="1.8" stroke-linecap="round" stroke-linejoin="round"/>
<path d="M6.40002 11.8008H13.6" stroke="black" stroke-width="1.8" stroke-linecap="round" stroke-linejoin="round"/>
<path d="M13.6 2.80078H18.1C18.3387 2.80078 18.5676 2.8956 18.7364 3.06439C18.9052 3.23317 19 3.46209 19 3.70078V22.6008C19 22.8395 18.9052 23.0684 18.7364 23.2372C18.5676 23.406 18.3387 23.5008 18.1 23.5008H1.9C1.66131 23.5008 1.43239 23.406 1.2636 23.2372C1.09482 23.0684 1 22.8395 1 22.6008V3.70078C1 3.46209 1.09482 3.23317 1.2636 3.06439C1.43239 2.8956 1.66131 2.80078 1.9 2.80078H6.4" stroke="black" stroke-width="1.8" stroke-linecap="round" stroke-linejoin="round"/>
<path d="M5.5 6.4V5.5C5.5 4.30653 5.97411 3.16193 6.81802 2.31802C7.66193 1.47411 8.80653 1 10 1C11.1935 1 12.3381 1.47411 13.182 2.31802C14.0259 3.16193 14.5 4.30653 14.5 5.5V6.4H5.5Z" stroke="black" stroke-width="1.8" stroke-linecap="round" stroke-linejoin="round"/>
</svg>
