<svg width="16" height="12" viewBox="0 0 16 12" fill="none" xmlns="http://www.w3.org/2000/svg">
<path d="M14.8571 0H1.14286C0.839753 0 0.549062 0.120408 0.334735 0.334735C0.120408 0.549062 0 0.839753 0 1.14286V3.49286V10.2786C0 10.5817 0.120408 10.8724 0.334735 11.0867C0.549062 11.301 0.839753 11.4214 1.14286 11.4214H14.8571C15.1602 11.4214 15.4509 11.301 15.6653 11.0867C15.8796 10.8724 16 10.5817 16 10.2786V1.14286C16 0.839753 15.8796 0.549062 15.6653 0.334735C15.4509 0.120408 15.1602 0 14.8571 0ZM8.57143 9.14286H7.42857C7.27702 9.14286 7.13167 9.08265 7.02451 8.97549C6.91735 8.86833 6.85714 8.72298 6.85714 8.57143C6.85714 8.41988 6.91735 8.27453 7.02451 8.16737C7.13167 8.0602 7.27702 8 7.42857 8H8.57143C8.72298 8 8.86833 8.0602 8.97549 8.16737C9.08265 8.27453 9.14286 8.41988 9.14286 8.57143C9.14286 8.72298 9.08265 8.86833 8.97549 8.97549C8.86833 9.08265 8.72298 9.14286 8.57143 9.14286ZM13.1429 9.14286H10.8571C10.7056 9.14286 10.5602 9.08265 10.4531 8.97549C10.3459 8.86833 10.2857 8.72298 10.2857 8.57143C10.2857 8.41988 10.3459 8.27453 10.4531 8.16737C10.5602 8.0602 10.7056 8 10.8571 8H13.1429C13.2944 8 13.4398 8.0602 13.5469 8.16737C13.6541 8.27453 13.7143 8.41988 13.7143 8.57143C13.7143 8.72298 13.6541 8.86833 13.5469 8.97549C13.4398 9.08265 13.2944 9.14286 13.1429 9.14286ZM1.14286 2.92143V1.14286H14.8571V2.92143H1.14286Z" fill="#573BE9"/>
</svg>
