<svg width="19" height="19" viewBox="0 0 19 19" fill="none" xmlns="http://www.w3.org/2000/svg">
<path d="M5.95205 4.85781C5.69465 4.59657 5.55036 4.24456 5.55036 3.87782C5.55036 3.51108 5.69465 3.15907 5.95205 2.89783L8.44104 0.408844C8.56926 0.279312 8.72189 0.176485 8.8901 0.106309C9.05831 0.0361328 9.23876 0 9.42103 0C9.60329 0 9.78374 0.0361328 9.95195 0.106309C10.1202 0.176485 10.2728 0.279312 10.401 0.408844L12.89 2.89783C13.1474 3.15907 13.2917 3.51108 13.2917 3.87782C13.2917 4.24456 13.1474 4.59657 12.89 4.85781L10.401 7.3468C10.2728 7.47633 10.1202 7.57915 9.95195 7.64933C9.78374 7.71951 9.60329 7.75564 9.42103 7.75564C9.23876 7.75564 9.05831 7.71951 8.8901 7.64933C8.72189 7.57915 8.56926 7.47633 8.44104 7.3468L5.95205 4.85781ZM18.4404 8.4482L15.9514 5.95921C15.8232 5.82967 15.6705 5.72685 15.5023 5.65667C15.3341 5.58649 15.1536 5.55036 14.9714 5.55036C14.7891 5.55036 14.6087 5.58649 14.4405 5.65667C14.2723 5.72685 14.1196 5.82967 13.9914 5.95921L11.5024 8.4482C11.245 8.70943 11.1007 9.06144 11.1007 9.42818C11.1007 9.79492 11.245 10.1469 11.5024 10.4082L13.9914 12.8972C14.1196 13.0267 14.2723 13.1295 14.4405 13.1997C14.6087 13.2699 14.7891 13.306 14.9714 13.306C15.1536 13.306 15.3341 13.2699 15.5023 13.1997C15.6705 13.1295 15.8232 13.0267 15.9514 12.8972L18.4404 10.4082C18.6978 10.1469 18.8421 9.79492 18.8421 9.42818C18.8421 9.06144 18.6978 8.70943 18.4404 8.4482ZM7.33964 8.4482L4.85065 5.95921C4.72243 5.82967 4.5698 5.72685 4.40159 5.65667C4.23338 5.58649 4.05293 5.55036 3.87066 5.55036C3.6884 5.55036 3.50795 5.58649 3.33974 5.65667C3.17153 5.72685 3.0189 5.82967 2.89068 5.95921L0.401689 8.4482C0.144288 8.70943 0 9.06144 0 9.42818C0 9.79492 0.144288 10.1469 0.401689 10.4082L2.89068 12.8972C3.0189 13.0267 3.17153 13.1295 3.33974 13.1997C3.50795 13.2699 3.6884 13.306 3.87066 13.306C4.05293 13.306 4.23338 13.2699 4.40159 13.1997C4.5698 13.1295 4.72243 13.0267 4.85065 12.8972L7.33964 10.4082C7.59704 10.1469 7.74133 9.79492 7.74133 9.42818C7.74133 9.06144 7.59704 8.70943 7.33964 8.4482ZM10.401 11.5096C10.2728 11.38 10.1202 11.2772 9.95195 11.207C9.78374 11.1369 9.60329 11.1007 9.42103 11.1007C9.23876 11.1007 9.05831 11.1369 8.8901 11.207C8.72189 11.2772 8.56926 11.38 8.44104 11.5096L5.95205 13.9986C5.69465 14.2598 5.55036 14.6118 5.55036 14.9785C5.55036 15.3453 5.69465 15.6973 5.95205 15.9585L8.44104 18.4475C8.56926 18.5771 8.72189 18.6799 8.8901 18.7501C9.05831 18.8202 9.23876 18.8564 9.42103 18.8564C9.60329 18.8564 9.78374 18.8202 9.95195 18.7501C10.1202 18.6799 10.2728 18.5771 10.401 18.4475L12.89 15.9585C13.1474 15.6973 13.2917 15.3453 13.2917 14.9785C13.2917 14.6118 13.1474 14.2598 12.89 13.9986L10.401 11.5096Z" fill="#573BE9"/>
</svg>
