<svg width="96" height="34" viewBox="0 0 96 34" fill="none" xmlns="http://www.w3.org/2000/svg">
<path d="M53.5586 20.5703C53.5586 20.2422 53.5078 19.9492 53.4062 19.6914C53.3125 19.4258 53.1367 19.1875 52.8789 18.9766C52.6289 18.7578 52.2734 18.5469 51.8125 18.3438C51.3594 18.1328 50.7734 17.9141 50.0547 17.6875C49.2578 17.4375 48.5156 17.1562 47.8281 16.8438C47.1406 16.5312 46.5352 16.168 46.0117 15.7539C45.4961 15.3398 45.0938 14.8633 44.8047 14.3242C44.5156 13.7773 44.3711 13.1445 44.3711 12.4258C44.3711 11.7227 44.5195 11.082 44.8164 10.5039C45.1211 9.92578 45.5508 9.42969 46.1055 9.01562C46.6602 8.59375 47.3125 8.26953 48.0625 8.04297C48.8203 7.81641 49.6562 7.70312 50.5703 7.70312C51.8359 7.70312 52.9297 7.93359 53.8516 8.39453C54.7812 8.85547 55.5 9.48047 56.0078 10.2695C56.5156 11.0586 56.7695 11.9453 56.7695 12.9297H53.5586C53.5586 12.3984 53.4453 11.9297 53.2188 11.5234C53 11.1172 52.6641 10.7969 52.2109 10.5625C51.7656 10.3281 51.2031 10.2109 50.5234 10.2109C49.8672 10.2109 49.3203 10.3086 48.8828 10.5039C48.4531 10.6992 48.1289 10.9648 47.9102 11.3008C47.6992 11.6367 47.5938 12.0117 47.5938 12.4258C47.5938 12.7383 47.668 13.0195 47.8164 13.2695C47.9648 13.5117 48.1875 13.7422 48.4844 13.9609C48.7812 14.1719 49.1484 14.3711 49.5859 14.5586C50.0312 14.7383 50.5469 14.918 51.1328 15.0977C52.0703 15.3789 52.8906 15.6914 53.5938 16.0352C54.3047 16.3789 54.8945 16.7695 55.3633 17.207C55.8398 17.6445 56.1953 18.1367 56.4297 18.6836C56.6719 19.2305 56.793 19.8516 56.793 20.5469C56.793 21.2812 56.6484 21.9375 56.3594 22.5156C56.0703 23.0938 55.6562 23.5859 55.1172 23.9922C54.5781 24.3984 53.9297 24.707 53.1719 24.918C52.4219 25.1289 51.582 25.2344 50.6523 25.2344C49.8242 25.2344 49.0039 25.125 48.1914 24.9062C47.3867 24.6797 46.6562 24.3438 46 23.8984C45.3438 23.4453 44.8203 22.875 44.4297 22.1875C44.0391 21.4922 43.8438 20.6797 43.8438 19.75H47.0781C47.0781 20.2891 47.1641 20.75 47.3359 21.1328C47.5156 21.5078 47.7656 21.8164 48.0859 22.0586C48.4141 22.293 48.7969 22.4648 49.2344 22.5742C49.6719 22.6836 50.1445 22.7383 50.6523 22.7383C51.3086 22.7383 51.8477 22.6484 52.2695 22.4688C52.6992 22.2812 53.0195 22.0234 53.2305 21.6953C53.4492 21.3672 53.5586 20.9922 53.5586 20.5703ZM62.7578 23.5938L66.1562 12.3203H69.4727L64.3867 26.9219C64.2695 27.2344 64.1172 27.5742 63.9297 27.9414C63.75 28.3086 63.5078 28.6562 63.2031 28.9844C62.8984 29.3203 62.5156 29.5938 62.0547 29.8047C61.6016 30.0156 61.0508 30.1211 60.4023 30.1211C60.1211 30.1211 59.8711 30.1016 59.6523 30.0625C59.4336 30.0234 59.2031 29.9727 58.9609 29.9102V27.5898C59.0391 27.5977 59.1289 27.6016 59.2305 27.6016C59.3398 27.6094 59.4336 27.6133 59.5117 27.6133C59.9648 27.6133 60.3398 27.5586 60.6367 27.4492C60.9336 27.3477 61.1719 27.1797 61.3516 26.9453C61.5391 26.7188 61.6953 26.4219 61.8203 26.0547L62.7578 23.5938ZM61.082 12.3203L63.9531 21.6602L64.457 24.9297L62.3242 25.3164L57.7422 12.3203H61.082ZM74.0078 15.0273V25H70.9141V12.3203H73.8203L74.0078 15.0273ZM73.5156 18.2031H72.6016C72.6094 17.2812 72.7344 16.4453 72.9766 15.6953C73.2188 14.9453 73.5586 14.3008 73.9961 13.7617C74.4414 13.2227 74.9688 12.8086 75.5781 12.5195C76.1875 12.2305 76.8672 12.0859 77.6172 12.0859C78.2266 12.0859 78.7773 12.1719 79.2695 12.3438C79.7617 12.5156 80.1836 12.7891 80.5352 13.1641C80.8945 13.5391 81.168 14.0312 81.3555 14.6406C81.5508 15.2422 81.6484 15.9844 81.6484 16.8672V25H78.5312V16.8438C78.5312 16.2656 78.4453 15.8086 78.2734 15.4727C78.1094 15.1367 77.8672 14.8984 77.5469 14.7578C77.2344 14.6172 76.8477 14.5469 76.3867 14.5469C75.9102 14.5469 75.4922 14.6445 75.1328 14.8398C74.7812 15.0273 74.4844 15.2891 74.2422 15.625C74.0078 15.9609 73.8281 16.3477 73.7031 16.7852C73.5781 17.2227 73.5156 17.6953 73.5156 18.2031ZM89.582 22.7969C90.0195 22.7969 90.4102 22.7109 90.7539 22.5391C91.0977 22.3672 91.3711 22.125 91.5742 21.8125C91.7852 21.5 91.8984 21.1367 91.9141 20.7227H94.832C94.8164 21.582 94.5742 22.3516 94.1055 23.0312C93.6367 23.7109 93.0117 24.25 92.2305 24.6484C91.457 25.0391 90.5898 25.2344 89.6289 25.2344C88.6523 25.2344 87.8008 25.0703 87.0742 24.7422C86.3477 24.4141 85.7422 23.957 85.2578 23.3711C84.7812 22.7852 84.4219 22.1055 84.1797 21.332C83.9453 20.5586 83.8281 19.7305 83.8281 18.8477V18.4727C83.8281 17.5898 83.9453 16.7617 84.1797 15.9883C84.4219 15.2148 84.7812 14.5352 85.2578 13.9492C85.7422 13.3633 86.3477 12.9062 87.0742 12.5781C87.8008 12.25 88.6484 12.0859 89.6172 12.0859C90.6406 12.0859 91.5391 12.2852 92.3125 12.6836C93.0938 13.082 93.7031 13.6445 94.1406 14.3711C94.5859 15.0977 94.8164 15.9531 94.832 16.9375H91.9141C91.8984 16.4844 91.7969 16.0781 91.6094 15.7188C91.4219 15.3594 91.1562 15.0703 90.8125 14.8516C90.4688 14.6328 90.0508 14.5234 89.5586 14.5234C89.0352 14.5234 88.5977 14.6328 88.2461 14.8516C87.9023 15.0703 87.6328 15.3711 87.4375 15.7539C87.25 16.1289 87.1172 16.5508 87.0391 17.0195C86.9688 17.4805 86.9336 17.9648 86.9336 18.4727V18.8477C86.9336 19.3633 86.9688 19.8555 87.0391 20.3242C87.1172 20.793 87.25 21.2148 87.4375 21.5898C87.6328 21.957 87.9023 22.25 88.2461 22.4688C88.5977 22.6875 89.043 22.7969 89.582 22.7969Z" fill="black"/>
<circle cx="17" cy="17" r="17" fill="#573BE9"/>
<path d="M13.8571 17.0714C13.8571 15.8706 14.2132 14.6968 14.8804 13.6983C15.5475 12.6999 16.4957 11.9217 17.6051 11.4622C18.7145 11.0026 19.9353 10.8824 21.113 11.1167C22.2908 11.3509 23.3726 11.9292 24.2217 12.7783C25.0708 13.6274 25.6491 14.7092 25.8833 15.887C26.1176 17.0647 25.9974 18.2855 25.5378 19.3949C25.0783 20.5043 24.3001 21.4525 23.3017 22.1196C22.3032 22.7868 21.1294 23.1429 19.9286 23.1429H13.25C12.1228 23.1429 11.0418 22.6951 10.2448 21.8981C9.44777 21.101 9 20.02 9 18.8929C9 17.7657 9.44777 16.6847 10.2448 15.8877C11.0418 15.0906 12.1228 14.6429 13.25 14.6429C13.6056 14.6427 13.9598 14.6861 14.3049 14.7719" stroke="white" stroke-width="1.21429" stroke-linecap="round" stroke-linejoin="round"/>
<path d="M22.3574 16.1602L18.7145 19.803L16.8931 17.9816" stroke="white" stroke-width="1.21429" stroke-linecap="round" stroke-linejoin="round"/>
</svg>
