<svg width="19" height="26" viewBox="0 0 19 26" fill="none" xmlns="http://www.w3.org/2000/svg">
<path d="M9.5 17.875C14.1599 17.875 17.9375 14.0974 17.9375 9.4375C17.9375 4.7776 14.1599 1 9.5 1C4.8401 1 1.0625 4.7776 1.0625 9.4375C1.0625 14.0974 4.8401 17.875 9.5 17.875Z" stroke="black" stroke-width="1.6875" stroke-linecap="round" stroke-linejoin="round"/>
<path d="M9.5 14.5C12.2959 14.5 14.5625 12.2334 14.5625 9.4375C14.5625 6.64156 12.2959 4.375 9.5 4.375C6.70406 4.375 4.4375 6.64156 4.4375 9.4375C4.4375 12.2334 6.70406 14.5 9.5 14.5Z" stroke="black" stroke-width="1.6875" stroke-linecap="round" stroke-linejoin="round"/>
<path d="M14.5625 16.1875V24.625L9.5 22.0938L4.4375 24.625V16.1875" stroke="black" stroke-width="1.6875" stroke-linecap="round" stroke-linejoin="round"/>
</svg>
