<svg width="29" height="19" viewBox="0 0 29 19" fill="none" xmlns="http://www.w3.org/2000/svg">
<path d="M9.49095 13.2646C12.8777 13.2646 15.6233 10.5191 15.6233 7.13231C15.6233 3.74553 12.8777 1 9.49095 1C6.10417 1 3.35864 3.74553 3.35864 7.13231C3.35864 10.5191 6.10417 13.2646 9.49095 13.2646Z" stroke="black" stroke-width="1.88686" stroke-miterlimit="10"/>
<path d="M17.4393 1.22407C17.9814 1.07704 18.5405 1.00171 19.1021 1C20.7285 1 22.2883 1.64608 23.4383 2.79611C24.5884 3.94614 25.2344 5.50592 25.2344 7.13231C25.2344 8.7587 24.5884 10.3185 23.4383 11.4685C22.2883 12.6185 20.7285 13.2646 19.1021 13.2646" stroke="black" stroke-width="1.88686" stroke-linecap="round" stroke-linejoin="round"/>
<path d="M1 17.6766C1.95752 16.314 3.2289 15.2019 4.70675 14.4342C6.1846 13.6664 7.82552 13.2656 9.49089 13.2656C11.1563 13.2656 12.7972 13.6664 14.275 14.4342C15.7529 15.2019 17.0243 16.314 17.9818 17.6766" stroke="black" stroke-width="1.88686" stroke-linecap="round" stroke-linejoin="round"/>
<path d="M19.1019 13.2656C20.7674 13.2646 22.4087 13.6649 23.8867 14.4326C25.3647 15.2004 26.636 16.313 27.5928 17.6762" stroke="black" stroke-width="1.88686" stroke-linecap="round" stroke-linejoin="round"/>
</svg>
